<?xml version="1.0" encoding="UTF-8"?>
<svg xmlns="http://www.w3.org/2000/svg" xmlns:xlink="http://www.w3.org/1999/xlink" width="24pt" height="24pt" viewBox="0 0 24 24" version="1.1">
<g id="surface1">
<path style=" stroke:none;fill-rule:nonzero;fill:rgb(0%,0%,0%);fill-opacity:1;" d="M 12.46875 0.1875 C 12.199219 -0.0625 11.785156 -0.0625 11.519531 0.1875 L 1.925781 9.191406 C 1.640625 9.488281 1.46875 9.878906 1.449219 10.289062 L 1.449219 13.878906 C 1.449219 14.234375 1.664062 14.328125 1.925781 14.085938 L 11.523438 5.074219 C 11.792969 4.828125 12.207031 4.828125 12.476562 5.074219 L 22.078125 14.085938 C 22.339844 14.328125 22.554688 14.234375 22.554688 13.878906 L 22.554688 10.289062 C 22.53125 9.878906 22.363281 9.488281 22.078125 9.191406 Z M 12.46875 9.96875 C 12.199219 9.722656 11.789062 9.722656 11.519531 9.96875 L 1.921875 18.972656 C 1.636719 19.265625 1.46875 19.65625 1.449219 20.066406 L 1.449219 23.65625 C 1.449219 24.011719 1.660156 24.109375 1.921875 23.863281 L 11.523438 14.855469 C 11.792969 14.609375 12.207031 14.609375 12.472656 14.855469 L 22.078125 23.863281 C 22.339844 24.109375 22.550781 24.015625 22.550781 23.65625 L 22.550781 20.066406 C 22.53125 19.65625 22.363281 19.269531 22.078125 18.972656 Z M 12.46875 9.96875 "/>
</g>
</svg>
