<?xml version="1.0" encoding="UTF-8"?>
<svg xmlns="http://www.w3.org/2000/svg" xmlns:xlink="http://www.w3.org/1999/xlink" width="24pt" height="24pt" viewBox="0 0 24 24" version="1.1">
<g id="surface1">
<path style=" stroke:none;fill-rule:nonzero;fill:rgb(0%,0%,0%);fill-opacity:1;" d="M 10.617188 11.472656 L 15.304688 15.167969 L 12.199219 7.507812 Z M 12 0 C 5.371094 0 0 5.371094 0 12 C 0 18.628906 5.371094 24 12 24 C 18.628906 24 24 18.628906 24 12 C 24 5.371094 18.628906 0 12 0 Z M 17.796875 17.304688 C 17.785156 17.777344 17.394531 18.148438 16.921875 18.136719 C 16.6875 18.136719 16.507812 18.046875 16.257812 17.84375 L 10.066406 12.84375 L 7.988281 18.046875 L 6.191406 18.046875 L 11.4375 5.441406 C 11.5625 5.125 11.863281 4.921875 12.203125 4.933594 C 12.527344 4.921875 12.832031 5.121094 12.945312 5.441406 L 17.71875 16.933594 C 17.761719 17.046875 17.796875 17.167969 17.796875 17.28125 C 17.796875 17.289062 17.796875 17.289062 17.796875 17.304688 Z M 17.796875 17.304688 "/>
</g>
</svg>
