<?xml version="1.0" encoding="UTF-8"?>
<svg xmlns="http://www.w3.org/2000/svg" xmlns:xlink="http://www.w3.org/1999/xlink" width="24pt" height="24pt" viewBox="0 0 24 24" version="1.1">
<g id="surface1">
<path style=" stroke:none;fill-rule:nonzero;fill:rgb(0%,0%,0%);fill-opacity:1;" d="M 17.804688 2.195312 L 17.804688 2.261719 L 17.960938 2.261719 L 17.960938 2.703125 L 18.03125 2.703125 L 18.03125 2.261719 L 18.1875 2.261719 L 18.1875 2.195312 Z M 18.703125 2.195312 L 18.53125 2.550781 L 18.359375 2.195312 L 18.269531 2.195312 L 18.269531 2.703125 L 18.339844 2.703125 L 18.339844 2.300781 L 18.511719 2.648438 L 18.554688 2.648438 L 18.726562 2.300781 L 18.726562 2.703125 L 18.792969 2.703125 L 18.792969 2.199219 Z M 14.449219 3.195312 C 14.242188 3.507812 14.023438 3.855469 13.789062 4.257812 L 13.746094 4.320312 C 14.429688 2.839844 15.195312 1.398438 16.039062 0 C 15.851562 0.359375 15.65625 0.742188 15.460938 1.144531 L 17.726562 0.894531 C 18.386719 0.59375 18.683594 0.316406 18.96875 -0.078125 C 24.210938 3.964844 26.300781 10.890625 24.175781 17.160156 C 22.050781 23.429688 16.179688 27.660156 9.5625 27.6875 C 2.941406 27.714844 -2.964844 23.535156 -5.140625 17.285156 C -7.320312 11.035156 -5.285156 4.089844 -0.078125 0 C 0.148438 -0.363281 0.378906 -0.761719 0.582031 -1.160156 C 0.78125 -1.546875 0.953125 -1.925781 1.089844 -2.269531 C 1.171875 -2.488281 1.238281 -2.691406 1.285156 -2.871094 C 1.328125 -3.027344 1.359375 -3.175781 1.386719 -3.320312 C 0.503906 -3.171875 -0.578125 -3.023438 -1.28125 -2.988281 Z M 11.894531 7.78125 L 11.816406 7.941406 C 11.738281 8.101562 11.660156 8.261719 11.582031 8.429688 C 11.496094 8.609375 11.410156 8.792969 11.320312 8.980469 L 11.1875 9.265625 C 12.085938 6.109375 13.1875 3.015625 14.488281 0 C 14.324219 0.398438 14.160156 0.808594 13.996094 1.230469 C 13.847656 1.609375 13.699219 1.996094 13.546875 2.394531 L 13.527344 2.453125 C 13.375 2.851562 13.226562 3.257812 13.074219 3.675781 L 13.0625 3.699219 L 13.78125 3.621094 C 12.78125 3.621094 11.972656 2.8125 11.96875 1.8125 C 11.96875 0.8125 12.777344 0 13.777344 0 C 14.640625 -0.105469 15.785156 -0.75 16.527344 -1.546875 C 16.867188 -1.914062 17.179688 -2.347656 17.46875 -2.851562 C 17.679688 -3.230469 17.878906 -3.648438 18.070312 -4.109375 C 18.238281 -4.515625 18.398438 -4.953125 18.550781 -5.429688 C 18.355469 -5.324219 18.128906 -5.25 17.878906 -5.195312 C 19.3125 -5.207031 20.484375 -4.054688 20.496094 -2.621094 C 20.511719 -1.1875 19.359375 -0.0117188 17.925781 0 C 18.730469 -0.308594 19.238281 -0.90625 19.605469 -1.640625 C 19.675781 -3.027344 20.75 -4.15625 22.132812 -4.300781 C 23.515625 -4.441406 24.792969 -3.554688 25.144531 -2.210938 C 25.496094 -0.863281 24.8125 0.535156 23.535156 1.085938 C 22.261719 1.636719 20.773438 1.175781 20.035156 0 C 19.976562 0.0117188 19.917969 0.0234375 19.859375 0.03125 L 19.816406 0.0351562 L 19.820312 0.0351562 C 20.097656 -0.0820312 20.335938 -0.210938 20.539062 -0.367188 C 20.640625 5.40625 16.042969 10.167969 10.269531 10.269531 C 4.496094 10.371094 -0.265625 5.773438 -0.367188 0 L -0.304688 -0.105469 L -0.226562 -0.257812 C 1.964844 -4.128906 6.867188 -5.511719 10.757812 -3.351562 C 14.648438 -1.195312 16.074219 3.691406 13.953125 7.601562 C 11.832031 11.511719 6.953125 12.984375 3.027344 10.898438 C -0.902344 8.8125 -2.417969 3.949219 -0.367188 0 L -0.335938 -0.0898438 C -1.246094 -1.378906 -1.015625 -3.148438 0.191406 -4.164062 C 1.398438 -5.179688 3.179688 -5.105469 4.296875 -3.988281 C 5.414062 -2.875 5.488281 -1.089844 4.472656 0.117188 C 3.457031 1.324219 1.6875 1.554688 0.394531 0.644531 C 0.152344 0.789062 -0.265625 0.921875 -0.601562 0.984375 L 0.0625 0.910156 L -0.601562 0.984375 L -0.617188 0.984375 L -0.71875 1 C -0.710938 0.996094 -0.707031 0.996094 -0.699219 0.992188 L -2.964844 1.242188 L -2.980469 1.265625 Z M 8.269531 16.449219 C 8.152344 16.773438 8.035156 17.105469 7.914062 17.441406 L 7.910156 17.457031 C 7.894531 17.503906 7.878906 17.550781 7.859375 17.597656 C 7.78125 17.824219 7.710938 18.03125 7.550781 18.5 C 7.8125 18.617188 8.023438 18.933594 8.226562 19.292969 C 3.074219 19.566406 -1.320312 15.613281 -1.59375 10.464844 C -1.867188 5.3125 2.085938 0.917969 7.234375 0.644531 C 8.527344 0.703125 9.644531 0.375 10.226562 -0.570312 C 10.273438 -0.65625 10.320312 -0.746094 10.363281 -0.839844 C 10.105469 -0.507812 9.773438 -0.367188 9.164062 -0.398438 C 9.164062 -0.398438 9.160156 -0.398438 9.160156 -0.398438 L 9.164062 -0.398438 C 10.0625 -0.804688 10.519531 -1.191406 10.917969 -1.832031 C 11.011719 -1.984375 11.105469 -2.152344 11.199219 -2.335938 C 10.410156 -1.527344 9.496094 -1.296875 8.535156 -1.472656 L 7.8125 -1.394531 C 7.984375 -0.726562 8.046875 -0.0390625 7.996094 0.644531 Z M 15.421875 0.113281 C 15.042969 0.335938 14.421875 0.960938 13.671875 1.875 L 14.359375 3.167969 C 14.839844 2.480469 15.328125 1.863281 15.820312 1.332031 L 15.878906 1.269531 C 15.859375 1.289062 15.839844 1.3125 15.820312 1.332031 C 15.660156 1.507812 15.175781 2.074219 14.445312 3.195312 C 15.148438 3.160156 16.230469 3.015625 17.113281 2.867188 C 17.375 1.394531 16.855469 0.722656 16.855469 0.722656 C 16.855469 0.722656 16.195312 -0.347656 15.417969 0.113281 Z M 12.335938 6.515625 C 29.273438 18.871094 33.890625 42.160156 22.945312 60.042969 C 12.003906 77.925781 -10.835938 84.414062 -29.546875 74.957031 C -48.257812 65.5 -56.578125 43.265625 -48.667969 23.847656 C -40.757812 4.429688 -19.269531 -5.664062 0.722656 0.644531 L 0.765625 0.582031 C 0.988281 0.230469 1.214844 -0.113281 1.441406 -0.4375 L 0.757812 -1.730469 L 0.597656 -1.539062 C 0.402344 -1.296875 0.195312 -1.03125 -0.015625 -0.75 C 0.996094 -0.324219 1.984375 0.140625 2.957031 0.644531 L 2.933594 0.683594 L 3.828125 2.445312 C 4.015625 2.066406 4.207031 1.695312 4.402344 1.328125 Z M 8.605469 14.835938 C 8.765625 14.429688 8.925781 14.023438 9.089844 13.609375 C 9.246094 13.214844 9.410156 12.820312 9.574219 12.417969 C -5.125 59.320312 -54.371094 86.117188 -101.734375 72.988281 C -149.101562 59.859375 -177.519531 11.53125 -165.972656 -36.246094 C -154.421875 -84.019531 -107.070312 -114.03125 -58.933594 -104.078125 C -10.800781 -94.125 20.765625 -47.792969 12.417969 0.644531 L 12.625 0.222656 C 12.742188 -0.0234375 12.859375 -0.265625 12.984375 -0.503906 C 13.300781 3.222656 10.539062 6.496094 6.816406 6.816406 C 3.089844 7.132812 -0.1875 4.371094 -0.503906 0.644531 L -1.398438 -1.117188 L -1.441406 -1.046875 C -1.648438 -0.707031 -1.855469 -0.359375 -2.058594 -0.0078125 C -1.371094 0.191406 -0.691406 0.410156 -0.0195312 0.644531 L -0.113281 0.839844 C 3.320312 6.351562 4.429688 13 2.972656 19.328125 L 3.871094 21.101562 C 3.988281 20.78125 4.109375 20.460938 4.234375 20.136719 Z M 7.230469 14.359375 C 8.117188 15.886719 8.691406 17.578125 8.921875 19.328125 C 8.921875 19.351562 8.917969 19.371094 8.917969 19.390625 C 8.636719 18.941406 7.886719 18.503906 7.890625 18.507812 C 8.429688 19.285156 8.835938 20.054688 8.894531 20.816406 C 8.605469 20.875 8.210938 20.789062 7.757812 20.621094 C 8.230469 21.058594 8.585938 21.175781 8.726562 21.210938 C 8.292969 21.238281 7.835938 21.535156 7.378906 21.878906 C 8.046875 21.609375 8.589844 21.5 8.976562 21.589844 C 8.367188 23.328125 7.746094 25.242188 7.132812 27.277344 C 4.9375 21.714844 7.667969 15.425781 13.230469 13.230469 C 18.792969 11.035156 25.082031 13.765625 27.277344 19.328125 C 27.390625 18.960938 28.117188 16.542969 29.257812 13.363281 L 29.355469 13.09375 L 29.382812 13.015625 C 29.503906 12.683594 29.628906 12.34375 29.757812 11.996094 L 29.847656 11.761719 L 29.847656 11.757812 L 7.238281 14.300781 C 7.238281 14.320312 7.230469 14.339844 7.226562 14.359375 Z M 7.230469 14.359375 "/>
</g>
</svg>
