<?xml version="1.0" encoding="UTF-8"?>
<svg xmlns="http://www.w3.org/2000/svg" xmlns:xlink="http://www.w3.org/1999/xlink" width="24pt" height="24pt" viewBox="0 0 24 24" version="1.1">
<g id="surface1">
<path style=" stroke:none;fill-rule:nonzero;fill:rgb(0%,0%,0%);fill-opacity:1;" d="M 9.710938 2.136719 C 9.441406 1.859375 9.070312 1.703125 8.6875 1.703125 C 8.300781 1.703125 7.933594 1.859375 7.664062 2.136719 L 7.65625 2.136719 C 7.382812 2.414062 7.234375 2.789062 7.234375 3.179688 C 7.234375 3.589844 7.394531 3.953125 7.65625 4.21875 L 7.664062 4.222656 C 7.921875 4.488281 8.28125 4.648438 8.683594 4.648438 C 9.085938 4.648438 9.449219 4.488281 9.710938 4.222656 L 9.714844 4.21875 C 9.972656 3.953125 10.132812 3.589844 10.132812 3.179688 C 10.132812 2.769531 9.976562 2.402344 9.714844 2.136719 Z M 8.683594 22.296875 C 9.085938 22.296875 9.449219 22.128906 9.710938 21.867188 L 9.714844 21.859375 C 9.972656 21.597656 10.132812 21.226562 10.132812 20.820312 C 10.132812 20.410156 9.976562 20.042969 9.714844 19.777344 L 9.710938 19.777344 C 9.441406 19.5 9.070312 19.34375 8.683594 19.347656 C 8.296875 19.34375 7.929688 19.5 7.664062 19.777344 L 7.65625 19.777344 C 7.394531 20.042969 7.234375 20.410156 7.234375 20.820312 C 7.234375 21.226562 7.394531 21.597656 7.65625 21.859375 L 7.664062 21.867188 C 7.921875 22.128906 8.28125 22.296875 8.683594 22.296875 Z M 16.574219 17.832031 C 16.933594 17.738281 17.257812 17.503906 17.453125 17.148438 L 17.480469 17.097656 C 17.652344 16.769531 17.695312 16.386719 17.597656 16.03125 C 17.5 15.652344 17.257812 15.332031 16.921875 15.132812 L 16.898438 15.121094 C 16.570312 14.933594 16.183594 14.886719 15.820312 14.988281 C 15.460938 15.078125 15.136719 15.324219 14.941406 15.675781 C 14.742188 16.023438 14.699219 16.425781 14.796875 16.792969 C 14.894531 17.15625 15.125 17.484375 15.46875 17.6875 L 15.472656 17.6875 C 15.816406 17.890625 16.210938 17.929688 16.574219 17.832031 Z M 10.167969 10.492188 C 9.777344 10.089844 9.242188 9.867188 8.683594 9.863281 C 8.101562 9.863281 7.578125 10.105469 7.199219 10.492188 C 6.824219 10.875 6.589844 11.40625 6.589844 11.996094 C 6.589844 12.589844 6.820312 13.121094 7.199219 13.511719 C 7.59375 13.910156 8.125 14.132812 8.683594 14.132812 C 9.242188 14.132812 9.777344 13.910156 10.167969 13.511719 C 10.546875 13.121094 10.78125 12.589844 10.78125 11.996094 C 10.78125 11.40625 10.546875 10.875 10.167969 10.492188 Z M 9.332031 7.980469 C 10.175781 8.121094 10.933594 8.53125 11.511719 9.125 L 11.515625 9.125 C 11.605469 9.21875 11.695312 9.320312 11.78125 9.425781 L 13.226562 8.574219 C 13.035156 7.988281 13.019531 7.359375 13.179688 6.765625 C 13.390625 5.953125 13.914062 5.261719 14.636719 4.839844 L 14.660156 4.824219 C 15.371094 4.410156 16.214844 4.300781 17.003906 4.515625 C 17.773438 4.726562 18.46875 5.238281 18.902344 6 C 19.335938 6.757812 19.421875 7.628906 19.214844 8.410156 C 19.007812 9.21875 18.484375 9.914062 17.761719 10.335938 L 17.5625 10.453125 L 17.542969 10.453125 C 16.871094 10.777344 16.105469 10.851562 15.386719 10.65625 C 14.800781 10.496094 14.277344 10.167969 13.875 9.710938 L 12.429688 10.558594 C 12.773438 11.488281 12.773438 12.511719 12.429688 13.4375 L 13.875 14.285156 C 14.285156 13.816406 14.8125 13.496094 15.386719 13.339844 C 16.1875 13.117188 17.046875 13.234375 17.757812 13.660156 L 17.808594 13.683594 C 18.503906 14.113281 19.007812 14.796875 19.214844 15.589844 C 19.429688 16.402344 19.316406 17.265625 18.902344 17.996094 L 18.875 18.050781 L 18.871094 18.042969 C 18.460938 18.746094 17.789062 19.261719 17.007812 19.480469 C 16.203125 19.695312 15.351562 19.582031 14.636719 19.160156 L 14.636719 19.15625 C 13.914062 18.730469 13.390625 18.039062 13.179688 17.230469 C 13.019531 16.636719 13.035156 16.007812 13.226562 15.425781 L 11.78125 14.574219 C 11.695312 14.679688 11.609375 14.777344 11.515625 14.871094 L 11.511719 14.875 C 10.925781 15.476562 10.160156 15.875 9.332031 16.011719 L 9.332031 17.710938 C 9.925781 17.839844 10.46875 18.140625 10.894531 18.574219 L 10.894531 18.578125 C 11.460938 19.148438 11.808594 19.945312 11.808594 20.820312 C 11.808594 21.695312 11.460938 22.484375 10.894531 23.058594 L 10.894531 23.070312 C 10.3125 23.664062 9.515625 24 8.683594 24 C 7.851562 23.996094 7.058594 23.664062 6.476562 23.070312 L 6.476562 23.0625 C 5.886719 22.464844 5.558594 21.660156 5.558594 20.820312 C 5.558594 19.945312 5.910156 19.148438 6.476562 18.578125 L 6.476562 18.574219 C 6.902344 18.140625 7.441406 17.839844 8.035156 17.714844 L 8.035156 16.015625 C 7.207031 15.878906 6.445312 15.476562 5.859375 14.875 L 5.851562 14.871094 C 5.101562 14.105469 4.679688 13.070312 4.679688 11.996094 C 4.679688 10.875 5.132812 9.859375 5.851562 9.125 L 5.859375 9.125 C 6.445312 8.523438 7.207031 8.121094 8.035156 7.980469 L 8.035156 6.289062 C 7.441406 6.15625 6.902344 5.859375 6.476562 5.425781 L 6.476562 5.421875 C 5.886719 4.824219 5.558594 4.015625 5.558594 3.179688 C 5.558594 2.308594 5.910156 1.507812 6.476562 0.933594 C 7.054688 0.335938 7.851562 0 8.683594 0 C 9.542969 0 10.324219 0.355469 10.894531 0.933594 C 11.460938 1.507812 11.808594 2.304688 11.808594 3.175781 C 11.808594 4.054688 11.460938 4.84375 10.894531 5.421875 L 10.894531 5.425781 C 10.46875 5.859375 9.925781 6.15625 9.332031 6.289062 Z M 17.453125 6.851562 L 17.441406 6.832031 C 17.25 6.503906 16.9375 6.265625 16.570312 6.164062 C 16.199219 6.0625 15.800781 6.117188 15.46875 6.3125 L 15.472656 6.3125 C 15.125 6.511719 14.890625 6.839844 14.792969 7.207031 C 14.699219 7.570312 14.738281 7.976562 14.941406 8.324219 L 14.945312 8.335938 C 15.148438 8.683594 15.464844 8.914062 15.820312 9.007812 C 16.179688 9.109375 16.574219 9.066406 16.917969 8.863281 L 16.9375 8.855469 C 17.261719 8.65625 17.5 8.339844 17.59375 7.96875 C 17.695312 7.59375 17.644531 7.191406 17.453125 6.851562 "/>
</g>
</svg>
