<?xml version="1.0" encoding="UTF-8"?>
<svg xmlns="http://www.w3.org/2000/svg" xmlns:xlink="http://www.w3.org/1999/xlink" width="24pt" height="24pt" viewBox="0 0 24 24" version="1.1">
<g id="surface1">
<path style=" stroke:none;fill-rule:nonzero;fill:rgb(0%,0%,0%);fill-opacity:1;" d="M 0.777344 1.214844 C 0.53125 0.941406 0.511719 0.535156 0.726562 0.242188 C 0.945312 -0.0546875 1.339844 -0.152344 1.671875 0 L 4.933594 19.808594 C 5.015625 20.308594 5.449219 20.679688 5.953125 20.683594 L 19.949219 20.683594 C 14.238281 20.480469 9.773438 15.6875 9.976562 9.976562 C 10.175781 4.261719 14.972656 -0.203125 20.683594 0 L 23.953125 -20.03125 C 29.484375 -19.785156 33.769531 -15.101562 33.523438 -9.570312 C 33.277344 -4.039062 28.59375 0.246094 23.0625 0 Z M 14.519531 15.53125 L 9.523438 15.53125 L 8.171875 8.464844 L 15.730469 8.464844 Z M 14.519531 15.53125 "/>
</g>
</svg>
