<?xml version="1.0" encoding="UTF-8"?>
<svg xmlns="http://www.w3.org/2000/svg" xmlns:xlink="http://www.w3.org/1999/xlink" width="24pt" height="24pt" viewBox="0 0 24 24" version="1.1">
<g id="surface1">
<path style=" stroke:none;fill-rule:nonzero;fill:rgb(0%,0%,0%);fill-opacity:1;" d="M 3.996094 4.515625 L 9.285156 4.515625 L 8.011719 6.324219 L 4.152344 7.507812 C 3.457031 7.726562 2.984375 8.375 2.988281 9.105469 L 2.988281 14.894531 C 2.984375 15.625 3.457031 16.273438 4.152344 16.492188 L 8.011719 17.675781 L 9.285156 19.484375 L 3.996094 19.484375 C 1.789062 19.484375 0 17.695312 0 15.488281 L 0 8.511719 C 0 6.304688 1.789062 4.515625 3.996094 4.515625 M 20.003906 4.515625 L 14.714844 4.515625 L 15.988281 6.324219 L 19.847656 7.507812 C 20.5625 7.734375 21.015625 8.394531 21.011719 9.105469 L 21.011719 14.894531 C 21.015625 15.625 20.542969 16.273438 19.847656 16.492188 L 15.988281 17.675781 L 14.714844 19.484375 L 20.003906 19.484375 C 22.210938 19.484375 24 17.695312 24 15.488281 L 24 8.511719 C 24 6.304688 22.210938 4.515625 20.003906 4.515625 M 15.996094 12.863281 L 8.003906 12.863281 L 8.003906 11.058594 L 15.996094 11.058594 Z M 15.996094 12.863281 "/>
</g>
</svg>
