<?xml version="1.0" encoding="UTF-8"?>
<svg xmlns="http://www.w3.org/2000/svg" xmlns:xlink="http://www.w3.org/1999/xlink" width="24pt" height="24pt" viewBox="0 0 24 24" version="1.1">
<g id="surface1">
<path style=" stroke:none;fill-rule:nonzero;fill:rgb(0%,0%,0%);fill-opacity:1;" d="M 6.761719 10.035156 C 6.761719 10.332031 6.796875 10.570312 6.851562 10.746094 C 6.914062 10.921875 6.996094 11.113281 7.105469 11.320312 C 7.148438 11.386719 7.164062 11.449219 7.164062 11.503906 C 7.164062 11.585938 7.113281 11.664062 7.011719 11.746094 L 6.507812 12.078125 C 6.445312 12.125 6.375 12.148438 6.300781 12.152344 C 6.21875 12.152344 6.140625 12.113281 6.0625 12.039062 C 5.953125 11.925781 5.859375 11.800781 5.773438 11.664062 C 5.683594 11.511719 5.601562 11.355469 5.527344 11.195312 C 4.902344 11.929688 4.121094 12.296875 3.179688 12.296875 C 2.507812 12.296875 1.972656 12.105469 1.582031 11.722656 C 1.191406 11.335938 0.992188 10.828125 0.992188 10.1875 C 0.992188 9.511719 1.230469 8.957031 1.71875 8.542969 C 2.207031 8.128906 2.851562 7.921875 3.675781 7.921875 C 3.945312 7.921875 4.226562 7.945312 4.519531 7.984375 C 4.816406 8.023438 5.121094 8.089844 5.4375 8.160156 L 5.4375 7.578125 C 5.4375 6.972656 5.3125 6.546875 5.0625 6.300781 C 4.808594 6.054688 4.378906 5.933594 3.761719 5.933594 C 3.484375 5.933594 3.195312 5.964844 2.898438 6.035156 C 2.605469 6.109375 2.316406 6.195312 2.039062 6.308594 C 1.945312 6.351562 1.851562 6.382812 1.757812 6.414062 C 1.71875 6.425781 1.675781 6.433594 1.632812 6.4375 C 1.519531 6.4375 1.464844 6.355469 1.464844 6.1875 L 1.464844 5.796875 C 1.464844 5.671875 1.480469 5.574219 1.519531 5.519531 C 1.578125 5.445312 1.65625 5.386719 1.742188 5.351562 C 2.023438 5.207031 2.355469 5.085938 2.746094 4.992188 C 3.15625 4.886719 3.574219 4.835938 3.992188 4.839844 C 4.945312 4.839844 5.636719 5.054688 6.085938 5.488281 C 6.523438 5.917969 6.746094 6.570312 6.746094 7.449219 L 6.746094 10.035156 Z M 3.523438 11.25 C 3.785156 11.25 4.058594 11.203125 4.34375 11.105469 C 4.632812 11.011719 4.886719 10.835938 5.101562 10.597656 C 5.230469 10.445312 5.328125 10.277344 5.375 10.085938 C 5.421875 9.894531 5.453125 9.660156 5.453125 9.390625 L 5.453125 9.054688 C 5.210938 8.996094 4.96875 8.949219 4.71875 8.917969 C 4.472656 8.886719 4.222656 8.871094 3.96875 8.871094 C 3.433594 8.871094 3.042969 8.976562 2.78125 9.191406 C 2.515625 9.40625 2.390625 9.710938 2.390625 10.109375 C 2.390625 10.484375 2.484375 10.761719 2.683594 10.953125 C 2.875 11.152344 3.15625 11.25 3.523438 11.25 Z M 9.933594 12.113281 C 9.789062 12.113281 9.691406 12.089844 9.628906 12.03125 C 9.566406 11.984375 9.507812 11.871094 9.460938 11.722656 L 7.585938 5.550781 C 7.550781 5.445312 7.523438 5.339844 7.515625 5.230469 C 7.515625 5.101562 7.578125 5.03125 7.703125 5.03125 L 8.488281 5.03125 C 8.640625 5.03125 8.742188 5.054688 8.796875 5.109375 C 8.863281 5.15625 8.910156 5.269531 8.957031 5.421875 L 10.300781 10.707031 L 11.546875 5.421875 C 11.585938 5.261719 11.632812 5.15625 11.695312 5.109375 C 11.792969 5.050781 11.902344 5.023438 12.015625 5.03125 L 12.652344 5.03125 C 12.804688 5.03125 12.910156 5.054688 12.972656 5.109375 C 13.035156 5.15625 13.09375 5.269531 13.125 5.421875 L 14.386719 10.769531 L 15.765625 5.421875 C 15.816406 5.261719 15.871094 5.15625 15.925781 5.109375 C 16.019531 5.050781 16.128906 5.023438 16.238281 5.03125 L 16.980469 5.03125 C 17.109375 5.03125 17.179688 5.09375 17.179688 5.230469 C 17.179688 5.269531 17.171875 5.308594 17.164062 5.359375 C 17.152344 5.425781 17.132812 5.492188 17.109375 5.558594 L 15.183594 11.726562 C 15.136719 11.886719 15.082031 11.992188 15.015625 12.039062 C 14.925781 12.097656 14.820312 12.125 14.714844 12.117188 L 14.027344 12.117188 C 13.875 12.117188 13.773438 12.09375 13.707031 12.039062 C 13.644531 11.984375 13.589844 11.878906 13.558594 11.71875 L 12.320312 6.570312 L 11.089844 11.710938 C 11.050781 11.871094 11.003906 11.976562 10.9375 12.03125 C 10.875 12.085938 10.761719 12.109375 10.617188 12.109375 Z M 20.1875 12.328125 C 19.773438 12.328125 19.359375 12.277344 18.960938 12.183594 C 18.5625 12.089844 18.25 11.984375 18.042969 11.863281 C 17.914062 11.792969 17.828125 11.714844 17.796875 11.640625 C 17.765625 11.570312 17.746094 11.496094 17.746094 11.417969 L 17.746094 11.011719 C 17.746094 10.84375 17.8125 10.761719 17.929688 10.761719 C 17.976562 10.761719 18.027344 10.769531 18.074219 10.785156 C 18.121094 10.804688 18.195312 10.835938 18.273438 10.867188 C 18.546875 10.988281 18.839844 11.082031 19.152344 11.144531 C 19.472656 11.210938 19.78125 11.242188 20.101562 11.242188 C 20.605469 11.242188 20.996094 11.152344 21.265625 10.976562 C 21.53125 10.816406 21.691406 10.527344 21.683594 10.21875 C 21.6875 10.011719 21.609375 9.8125 21.46875 9.660156 C 21.324219 9.511719 21.050781 9.375 20.660156 9.246094 L 19.503906 8.886719 C 18.921875 8.703125 18.488281 8.433594 18.226562 8.074219 C 17.96875 7.742188 17.828125 7.335938 17.824219 6.914062 C 17.824219 6.578125 17.898438 6.285156 18.042969 6.027344 C 18.1875 5.773438 18.378906 5.550781 18.617188 5.375 C 18.855469 5.191406 19.128906 5.054688 19.445312 4.960938 C 19.765625 4.863281 20.101562 4.824219 20.453125 4.824219 C 20.628906 4.824219 20.8125 4.832031 20.988281 4.855469 C 21.171875 4.878906 21.339844 4.910156 21.507812 4.945312 C 21.664062 4.984375 21.816406 5.023438 21.960938 5.070312 C 22.105469 5.117188 22.21875 5.167969 22.296875 5.214844 C 22.390625 5.261719 22.472656 5.332031 22.535156 5.414062 C 22.589844 5.492188 22.613281 5.585938 22.609375 5.679688 L 22.609375 6.054688 C 22.609375 6.222656 22.542969 6.308594 22.425781 6.308594 C 22.316406 6.296875 22.214844 6.265625 22.121094 6.214844 C 21.640625 6 21.117188 5.894531 20.589844 5.902344 C 20.132812 5.902344 19.773438 5.972656 19.527344 6.125 C 19.277344 6.277344 19.152344 6.507812 19.152344 6.835938 C 19.152344 7.058594 19.230469 7.25 19.390625 7.402344 C 19.550781 7.554688 19.847656 7.707031 20.269531 7.84375 L 21.402344 8.199219 C 21.976562 8.382812 22.394531 8.640625 22.640625 8.96875 C 22.886719 9.292969 23.007812 9.667969 23.007812 10.085938 C 23.007812 10.425781 22.933594 10.738281 22.800781 11.011719 C 22.65625 11.28125 22.464844 11.519531 22.21875 11.714844 C 21.96875 11.914062 21.675781 12.054688 21.332031 12.160156 C 20.972656 12.269531 20.597656 12.328125 20.1875 12.328125 Z M 21.699219 16.207031 C 19.070312 18.148438 15.257812 19.175781 11.976562 19.175781 C 7.378906 19.175781 3.234375 17.476562 0.105469 14.648438 C -0.140625 14.425781 0.0820312 14.121094 0.378906 14.300781 C 3.761719 16.261719 7.9375 17.453125 12.253906 17.453125 C 15.167969 17.453125 18.367188 16.84375 21.316406 15.601562 C 21.753906 15.398438 22.128906 15.886719 21.699219 16.207031 Z M 22.792969 14.960938 C 22.457031 14.53125 20.570312 14.753906 19.71875 14.859375 C 19.464844 14.890625 19.421875 14.664062 19.65625 14.496094 C 21.15625 13.445312 23.621094 13.746094 23.910156 14.097656 C 24.195312 14.460938 23.828125 16.925781 22.425781 18.105469 C 22.210938 18.289062 22 18.195312 22.097656 17.953125 C 22.417969 17.164062 23.128906 15.386719 22.792969 14.960938 Z M 22.792969 14.960938 "/>
</g>
</svg>
